<?xml version="1.0" standalone="no"?>
<!DOCTYPE svg PUBLIC "-//W3C//DTD SVG 20010904//EN"
 "http://www.w3.org/TR/2001/REC-SVG-20010904/DTD/svg10.dtd">
<svg version="1.0" xmlns="http://www.w3.org/2000/svg"
 width="260.000000pt" height="260.000000pt" viewBox="0 0 260.000000 260.000000"
 preserveAspectRatio="xMidYMid meet">
<metadata>
Created by potrace 1.11, written by Peter Selinger 2001-2013
</metadata>
<g transform="translate(0.000000,260.000000) scale(0.100000,-0.100000)"
fill="#000000" stroke="none">
<path d="M0 1300 l0 -1300 1300 0 1300 0 0 1300 0 1300 -1300 0 -1300 0 0
-1300z m776 298 c57 -56 104 -105 104 -110 0 -4 -118 -8 -262 -8 l-262 0 -111
110 -112 110 269 0 270 0 104 -102z m590 -100 l206 -202 -204 -203 -203 -202
-105 -1 -105 0 -110 110 -110 110 150 0 150 0 93 93 93 94 -200 195 c-111 108
-201 199 -201 202 0 3 76 6 170 6 l170 0 206 -202z m489 0 l206 -202 -203
-203 -203 -203 -178 0 -178 0 207 203 207 202 -208 203 -208 202 176 0 176 0
206 -202z m624 200 c-3 -2 -81 -78 -174 -170 l-170 -167 -90 84 -90 83 85 86
85 86 179 0 c99 0 177 -1 175 -2z m-1921 -418 l82 -79 0 -69 0 -68 85 -83 c47
-46 85 -85 85 -87 0 -2 -103 -4 -230 -4 l-230 0 0 235 0 235 63 0 64 0 81 -80z
m1751 -225 l166 -165 -175 0 -175 0 -83 83 -83 83 83 82 c46 45 87 82 92 82 5
0 83 -74 175 -165z"/>
</g>
</svg>
