<svg xmlns="http://www.w3.org/2000/svg" viewBox="0 0 64 80" x="0px" y="0px"><title>ghost</title><g><path d="M61.89,36.8a4.08,4.08,0,0,0-2-2.59l-.17-.08a13,13,0,0,1-4.13-2.35,13.37,13.37,0,0,1-3.66-5.15A12.93,12.93,0,0,1,51,21.27V20.5a8.59,8.59,0,0,0-.07-1A19,19,0,0,0,33.27,2.06a14,14,0,0,0-2.51,0A19.06,19.06,0,0,0,13.08,19.44c0,.37-.08,1.67-.07,1.73v.1a13.1,13.1,0,0,1-.94,5.36A13.26,13.26,0,0,1,8.4,31.78a12.87,12.87,0,0,1-4.12,2.35l-.17.08a4.08,4.08,0,0,0-2,2.59,4,4,0,0,0,2.82,4.76L11,43.21a2,2,0,0,1,1.4,2.35L10.8,52.4a4,4,0,0,0,3.57,4.86l7.71.59a4,4,0,0,1,2,.93A10.88,10.88,0,0,0,31.86,62h.28a10.89,10.89,0,0,0,7.76-3.22,4,4,0,0,1,2-.93l7.71-.59A4,4,0,0,0,53.2,52.4l-1.58-6.84A2,2,0,0,1,53,43.21l6-1.65A4,4,0,0,0,61.89,36.8Zm-3.35,2.83-6,1.65A4,4,0,0,0,49.67,46l1.58,6.84a2,2,0,0,1-.34,1.62,2,2,0,0,1-1.44.8l-7.7.59a4.83,4.83,0,0,0-1.42.35A35.07,35.07,0,0,1,39.5,47c0-.33,0-.65.06-1a.5.5,0,0,0-1-.09c0,.34-.05.68-.06,1a35.91,35.91,0,0,0,.92,9.69,5,5,0,0,0-.94.7A8.89,8.89,0,0,1,32.14,60h-.28a8.89,8.89,0,0,1-6.34-2.63,5,5,0,0,0-.94-.7A35.91,35.91,0,0,0,25.5,47c0-.35,0-.69-.06-1a.5.5,0,0,0-1,.09c0,.32,0,.64.06,1a35,35,0,0,1-.85,9.19,4.83,4.83,0,0,0-1.42-.35l-7.7-.59a2,2,0,0,1-1.44-.8,2,2,0,0,1-.34-1.62L14.33,46a4,4,0,0,0-2.83-4.73l-6-1.65a2,2,0,0,1-1.41-2.38A2.1,2.1,0,0,1,5,36,14.9,14.9,0,0,0,9.7,33.3a15.52,15.52,0,0,0,4.23-5.93A15,15,0,0,0,15,21.18v-.66a7.1,7.1,0,0,1,.06-.88A17.05,17.05,0,0,1,30.91,4.05a11.55,11.55,0,0,1,2.2,0A17.05,17.05,0,0,1,48.93,19.67a6.26,6.26,0,0,1,.06.84v.63a15.34,15.34,0,0,0,1.08,6.23A15.52,15.52,0,0,0,54.3,33.3,14.9,14.9,0,0,0,59,36a2.1,2.1,0,0,1,1,1.26A2,2,0,0,1,58.54,39.63ZM24.84,15.22a2,2,0,0,1-3.36,2.07A7.56,7.56,0,0,0,21,20c0,2.77,1.34,5,3,5s3-2.24,3-5C27,17.72,26.09,15.83,24.84,15.22Zm16,0a2,2,0,0,1-3.36,2.07A7.56,7.56,0,0,0,37,20c0,2.77,1.34,5,3,5s3-2.24,3-5C43,17.72,42.09,15.83,40.84,15.22ZM32,28c-1,0-6,.12-6,2.5,0,1.24,2.48,7.5,6,7.5s6-6.26,6-7.5C38,28.12,33,28,32,28ZM15.11,30.5a.51.51,0,0,0-.45.54,16.61,16.61,0,0,1-.05,3.37,14.91,14.91,0,0,1-1.07,4.1.51.51,0,0,0,.26.66.45.45,0,0,0,.2,0,.5.5,0,0,0,.46-.3,16.14,16.14,0,0,0,1.14-4.38A16.6,16.6,0,0,0,15.66,31,.5.5,0,0,0,15.11,30.5Zm34.28,3.91a16.61,16.61,0,0,1,0-3.37.5.5,0,0,0-1-.09,16.6,16.6,0,0,0,.06,3.58,15.79,15.79,0,0,0,1.14,4.38.5.5,0,0,0,.46.3.48.48,0,0,0,.2,0,.51.51,0,0,0,.26-.66A14.91,14.91,0,0,1,49.39,34.41Z"/></g></svg>